/* XPM */
static char *dummy[]={
"48 48 4 1",
". c None",
"# c #8f8f8f",
"a c #bfbfbf",
"b c #ffffff",
"................................................",
"................................................",
"................................................",
"................................................",
"................................................",
"................................................",
"................................................",
"................................................",
"................................................",
"................................................",
"................................................",
"................................................",
"................................................",
"................................................",
"................................................",
"................................................",
"................................................",
"................................................",
"............#aaaaaaaaaaaaaaaaaaaaaa#............",
"............abbbbbbbbbbbbbbbbbbbbbba............",
"............abbbbbbbbbbbbbbbbbbbbbba............",
"............#aaaaaaaaaaaaaaaaaaaaaa#............",
"................................................",
"................................................",
"................................................",
"................................................",
"............#aaaaaaaaaaaaaaaaaaaaaa#............",
"............abbbbbbbbbbbbbbbbbbbbbba............",
"............abbbbbbbbbbbbbbbbbbbbbba............",
"............#aaaaaaaaaaaaaaaaaaaaaa#............",
"................................................",
"................................................",
"................................................",
"................................................",
"................................................",
"................................................",
"................................................",
"................................................",
"................................................",
"................................................",
"................................................",
"................................................",
"................................................",
"................................................",
"................................................",
"................................................",
"................................................",
"................................................"};
